<?xml version="1.0" encoding="UTF-8"?>
<svg version="1.1" xmlns="http://www.w3.org/2000/svg" width="500" height="500">
<path d="M0 0 C165 0 330 0 500 0 C500 165 500 330 500 500 C335 500 170 500 0 500 C0 335 0 170 0 0 Z " fill="#000000" transform="translate(0,0)"/>
<path d="M0 0 C1.03253906 0.00902344 2.06507813 0.01804687 3.12890625 0.02734375 C4.27166016 0.04474609 4.27166016 0.04474609 5.4375 0.0625 C5.4375 1.0525 5.4375 2.0425 5.4375 3.0625 C4.4475 3.3925 3.4575 3.7225 2.4375 4.0625 C2.4375 4.7225 2.4375 5.3825 2.4375 6.0625 C3.0975 6.0625 3.7575 6.0625 4.4375 6.0625 C4.4375 6.7225 4.4375 7.3825 4.4375 8.0625 C-0.79093512 11.36759312 -5.46888289 13.05149522 -11.5 14.3125 C-12.27923828 14.48523438 -13.05847656 14.65796875 -13.86132812 14.8359375 C-15.7594592 15.25515663 -17.66068643 15.6603167 -19.5625 16.0625 C-18.89009277 15.98209473 -18.21768555 15.90168945 -17.52490234 15.81884766 C38.37112267 9.16749584 38.37112267 9.16749584 50.4375 12.0625 C50.1075 13.7125 49.7775 15.3625 49.4375 17.0625 C48.4475 17.0625 47.4575 17.0625 46.4375 17.0625 C46.4375 17.7225 46.4375 18.3825 46.4375 19.0625 C47.4275 20.0525 47.4275 20.0525 48.4375 21.0625 C43.06116495 24.26542301 37.72972526 25.92706987 31.6875 27.375 C30.94250244 27.55836914 30.19750488 27.74173828 29.42993164 27.93066406 C25.72011321 28.77933995 23.07035833 29.17623402 19.4375 28.0625 C20.4275 27.7325 21.4175 27.4025 22.4375 27.0625 C19.54515685 26.23611624 17.55007569 26.0625 14.4375 26.0625 C14.4375 25.4025 14.4375 24.7425 14.4375 24.0625 C11.7975 24.3925 9.1575 24.7225 6.4375 25.0625 C6.4375 24.4025 6.4375 23.7425 6.4375 23.0625 C3.66630216 24.7683258 3.66630216 24.7683258 2.4375 26.0625 C-18.00864883 29.5948107 -18.00864883 29.5948107 -23.0625 26.5625 C-23.805 25.82 -23.805 25.82 -24.5625 25.0625 C-24.5625 26.3825 -24.5625 27.7025 -24.5625 29.0625 C-27.5325 29.3925 -30.5025 29.7225 -33.5625 30.0625 C-33.8925 29.0725 -34.2225 28.0825 -34.5625 27.0625 C-35.2225 27.0625 -35.8825 27.0625 -36.5625 27.0625 C-36.5625 27.7225 -36.5625 28.3825 -36.5625 29.0625 C-37.8825 29.0625 -39.2025 29.0625 -40.5625 29.0625 C-40.5625 30.0525 -40.5625 31.0425 -40.5625 32.0625 C-42.8725 31.7325 -45.1825 31.4025 -47.5625 31.0625 C-47.5625 31.7225 -47.5625 32.3825 -47.5625 33.0625 C-61.48338784 36.08184566 -75.40878538 39.07166634 -89.375 41.875 C-90.39843506 42.0814917 -91.42187012 42.2879834 -92.47631836 42.50073242 C-102.85345527 44.56782545 -102.85345527 44.56782545 -107.5625 45.0625 C-107.8925 44.7325 -108.2225 44.4025 -108.5625 44.0625 C-110.42573318 44.31538812 -112.27958432 44.63940153 -114.125 45 C-115.13691406 45.19464844 -116.14882812 45.38929688 -117.19140625 45.58984375 C-118.36509766 45.82380859 -118.36509766 45.82380859 -119.5625 46.0625 C-118.0775 47.0525 -118.0775 47.0525 -116.5625 48.0625 C-152.98981594 57.6194036 -152.98981594 57.6194036 -160.5625 59.0625 C-159.9025 58.0725 -159.2425 57.0825 -158.5625 56.0625 C-160.5425 56.0625 -162.5225 56.0625 -164.5625 56.0625 C-164.5625 53.05722353 -162.61814773 52.11814773 -160.5625 50.0625 C-160.5625 49.0725 -160.5625 48.0825 -160.5625 47.0625 C-144.49240474 41.28881308 -144.49240474 41.28881308 -136.75 39 C-132.72459264 37.79831205 -128.95603982 36.40655633 -125.125 34.6875 C-115.99340343 30.72100136 -106.17975188 28.5412658 -96.5625 26.0625 C-98.8725 25.0725 -101.1825 24.0825 -103.5625 23.0625 C-103.5625 23.7225 -103.5625 24.3825 -103.5625 25.0625 C-104.614375 25.330625 -105.66625 25.59875 -106.75 25.875 C-110.45888681 26.83762063 -110.45888681 26.83762063 -112.9375 28.625 C-116.14283954 30.38030499 -118.77172967 30.54760326 -122.37890625 30.75390625 C-124.79063357 31.0947407 -126.41389957 31.9505439 -128.5625 33.0625 C-131.3125 33.1875 -131.3125 33.1875 -133.5625 33.0625 C-132.5725 32.7325 -131.5825 32.4025 -130.5625 32.0625 C-130.5625 31.4025 -130.5625 30.7425 -130.5625 30.0625 C-131.2225 29.7325 -131.8825 29.4025 -132.5625 29.0625 C-130.5825 28.4025 -128.6025 27.7425 -126.5625 27.0625 C-130.19807769 25.85064077 -131.20033618 26.46989608 -134.5625 28.0625 C-135.0575 28.5575 -135.0575 28.5575 -135.5625 29.0625 C-134.5725 30.0525 -134.5725 30.0525 -133.5625 31.0625 C-134.2225 31.0625 -134.8825 31.0625 -135.5625 31.0625 C-135.0675 32.5475 -135.0675 32.5475 -134.5625 34.0625 C-135.8825 34.3925 -137.2025 34.7225 -138.5625 35.0625 C-138.2325 34.0725 -137.9025 33.0825 -137.5625 32.0625 C-138.8825 32.0625 -140.2025 32.0625 -141.5625 32.0625 C-142.0575 33.0525 -142.0575 33.0525 -142.5625 34.0625 C-144.5425 34.0625 -146.5225 34.0625 -148.5625 34.0625 C-146.36452597 31.86452597 -145.38703855 31.60352483 -142.4375 30.9375 C-141.15875 30.64875 -139.88 30.36 -138.5625 30.0625 C-141.01207355 30.0625 -143.22119111 30.52615566 -145.625 31 C-146.52347656 31.17402344 -147.42195313 31.34804688 -148.34765625 31.52734375 C-150.52307607 31.84932479 -150.52307607 31.84932479 -151.5625 33.0625 C-150.9025 33.7225 -150.2425 34.3825 -149.5625 35.0625 C-150.0575 36.0525 -150.0575 36.0525 -150.5625 37.0625 C-153.2025 37.0625 -155.8425 37.0625 -158.5625 37.0625 C-158.8925 36.4025 -159.2225 35.7425 -159.5625 35.0625 C-159.5625 36.0525 -159.5625 37.0425 -159.5625 38.0625 C-160.5525 37.5675 -160.5525 37.5675 -161.5625 37.0625 C-161.5625 36.7325 -161.5625 36.4025 -161.5625 36.0625 C-162.24957031 36.2790625 -162.93664062 36.495625 -163.64453125 36.71875 C-164.54558594 36.9971875 -165.44664062 37.275625 -166.375 37.5625 C-167.26832031 37.8409375 -168.16164062 38.119375 -169.08203125 38.40625 C-171.5625 39.0625 -171.5625 39.0625 -174.5625 39.0625 C-174.5625 39.7225 -174.5625 40.3825 -174.5625 41.0625 C-173.5725 41.3925 -172.5825 41.7225 -171.5625 42.0625 C-171.5625 43.0525 -171.5625 44.0425 -171.5625 45.0625 C-172.366875 45.145 -173.17125 45.2275 -174 45.3125 C-177.9045359 46.13450756 -181.04874452 47.56421923 -184.609375 49.3203125 C-185.25390625 49.56523437 -185.8984375 49.81015625 -186.5625 50.0625 C-187.89583333 49.39583333 -189.22916667 48.72916667 -190.5625 48.0625 C-192.9025417 48.34491883 -195.23754723 48.67500787 -197.5625 49.0625 C-197.5625 49.7225 -197.5625 50.3825 -197.5625 51.0625 C-196.5725 51.3925 -195.5825 51.7225 -194.5625 52.0625 C-197.5325 52.7225 -200.5025 53.3825 -203.5625 54.0625 C-203.8925 53.4025 -204.2225 52.7425 -204.5625 52.0625 C-205.5525 51.7325 -206.5425 51.4025 -207.5625 51.0625 C-206.77875 50.794375 -205.995 50.52625 -205.1875 50.25 C-202.28135077 49.21435568 -202.28135077 49.21435568 -200.5625 46.0625 C-197.90673828 44.88012695 -197.90673828 44.88012695 -194.5078125 43.73828125 C-193.8897171 43.52746414 -193.2716217 43.31664703 -192.63479614 43.09944153 C-191.30218232 42.64618202 -189.96799708 42.19752179 -188.63244629 41.75299072 C-186.58122285 41.06874555 -184.53573279 40.36952049 -182.49121094 39.66552734 C-142.65787718 25.98210651 -102.59193416 14.98497092 -60.87890625 8.73828125 C-56.78876053 8.11650701 -52.7254944 7.37124803 -48.65698242 6.62231445 C-42.5934541 5.52537793 -36.51486346 4.51691732 -30.4375 3.5 C-29.11848832 3.27670019 -27.79947789 3.05339293 -26.48046875 2.83007812 C-8.95341135 -0.10291277 -8.95341135 -0.10291277 0 0 Z " fill="#F3C800" transform="translate(331.5625,308.9375)"/>
<path d="M0 0 C2.9375 0.3125 2.9375 0.3125 4.9375 1.3125 C4.9375 2.3025 4.9375 3.2925 4.9375 4.3125 C5.9275 3.3225 6.9175 2.3325 7.9375 1.3125 C8.9275 1.6425 9.9175 1.9725 10.9375 2.3125 C11.22120628 7.89205676 11.11281869 10.60832417 7.9375 15.3125 C7.45786582 16.65926942 7.00103373 18.01429247 6.5625 19.375 C5.2054137 23.21403023 3.39916625 25.06709486 -0.0625 27.3125 C0.14375 27.93125 0.35 28.55 0.5625 29.1875 C0.748125 30.239375 0.748125 30.239375 0.9375 31.3125 C0.2775 31.9725 -0.3825 32.6325 -1.0625 33.3125 C-2.83985726 38.83166201 -3.42345316 42.54523214 -2.0625 48.3125 C-0.59787517 50.97004805 1.19056754 53.30495626 3.0625 55.6875 C3.55588867 56.34306885 4.04927734 56.9986377 4.55761719 57.67407227 C6.71601277 60.52623786 8.92167593 63.29414515 11.2578125 66.00390625 C15.85531155 71.35524623 15.85531155 71.35524623 16.13671875 74.6328125 C15.875 76.875 15.875 76.875 14.9375 80.3125 C13.9475 80.6425 12.9575 80.9725 11.9375 81.3125 C11.9375 82.6325 11.9375 83.9525 11.9375 85.3125 C10.9475 85.3125 9.9575 85.3125 8.9375 85.3125 C8.9375 85.9725 8.9375 86.6325 8.9375 87.3125 C5.66516181 86.43987648 3.44662029 85.83859096 1.0625 83.375 C-0.0625 81.3125 -0.0625 81.3125 -0.0625 78.3125 C-1.0525 78.3125 -2.0425 78.3125 -3.0625 78.3125 C-4.484375 76.66796875 -4.484375 76.66796875 -5.8125 74.5 C-6.26109375 73.79230469 -6.7096875 73.08460938 -7.171875 72.35546875 C-8.0625 70.3125 -8.0625 70.3125 -7.0625 67.3125 C-7.5575 66.8175 -7.5575 66.8175 -8.0625 66.3125 C-8.5575 65.8175 -8.5575 65.8175 -9.0625 65.3125 C-10.0525 65.8075 -10.0525 65.8075 -11.0625 66.3125 C-11.0625 65.6525 -11.0625 64.9925 -11.0625 64.3125 C-11.7225 64.3125 -12.3825 64.3125 -13.0625 64.3125 C-13.16820312 64.9621875 -13.27390625 65.611875 -13.3828125 66.28125 C-14.27080505 70.24149264 -15.58420473 73.99026605 -16.9375 77.8125 C-17.32228516 78.93205078 -17.32228516 78.93205078 -17.71484375 80.07421875 C-19.47291278 85.06572127 -21.25625788 89.50625788 -25.0625 93.3125 C-28.1875 93.4375 -28.1875 93.4375 -31.0625 93.3125 C-31.0625 92.6525 -31.0625 91.9925 -31.0625 91.3125 C-31.7225 91.3125 -32.3825 91.3125 -33.0625 91.3125 C-33.3925 90.3225 -33.7225 89.3325 -34.0625 88.3125 C-34.7225 87.9825 -35.3825 87.6525 -36.0625 87.3125 C-36.90274836 78.03667805 -34.55286438 70.91894028 -31.125 62.375 C-30.19784014 59.99142121 -29.27199946 57.60732874 -28.34765625 55.22265625 C-27.93394775 54.18246338 -27.52023926 53.14227051 -27.09399414 52.07055664 C-26.25111161 49.81681844 -25.57632877 47.65827059 -25.0625 45.3125 C-25.7225 45.3125 -26.3825 45.3125 -27.0625 45.3125 C-27.3925 43.6625 -27.7225 42.0125 -28.0625 40.3125 C-28.7225 40.3125 -29.3825 40.3125 -30.0625 40.3125 C-30.56865298 39.04410474 -31.06719099 37.77266898 -31.5625 36.5 C-31.8409375 35.79230469 -32.119375 35.08460938 -32.40625 34.35546875 C-33.0625 32.3125 -33.0625 32.3125 -33.0625 29.3125 C-33.7225 29.3125 -34.3825 29.3125 -35.0625 29.3125 C-35.25741452 27.85513913 -35.44319358 26.39655407 -35.625 24.9375 C-35.72941406 24.12539062 -35.83382812 23.31328125 -35.94140625 22.4765625 C-36.0625 20.3125 -36.0625 20.3125 -35.0625 18.3125 C-35.0625 17.3225 -35.0625 16.3325 -35.0625 15.3125 C-32.7525 15.3125 -30.4425 15.3125 -28.0625 15.3125 C-28.0625 15.9725 -28.0625 16.6325 -28.0625 17.3125 C-27.4025 17.3125 -26.7425 17.3125 -26.0625 17.3125 C-25.4025 18.9625 -24.7425 20.6125 -24.0625 22.3125 C-24.0625 21.6525 -24.0625 20.9925 -24.0625 20.3125 C-23.7325 19.3225 -23.4025 18.3325 -23.0625 17.3125 C-22.0725 17.3125 -21.0825 17.3125 -20.0625 17.3125 C-19.7325 19.6225 -19.4025 21.9325 -19.0625 24.3125 C-17.7425 24.6425 -16.4225 24.9725 -15.0625 25.3125 C-14.69125 24.075 -14.32 22.8375 -13.9375 21.5625 C-6.99907722 0.71419155 -6.99907722 0.71419155 0 0 Z " fill="#F8CC00" transform="translate(253.0625,219.6875)"/>
<path d="M0 0 C2.9375 0.75 2.9375 0.75 4.9375 1.75 C5.3089451 21.29944158 4.03520418 40.43878035 0.9375 59.75 C-1.375 60.4375 -1.375 60.4375 -4.0625 60.75 C-5.72363281 59.63720703 -5.72363281 59.63720703 -7.0625 57.75 C-7.32714844 55.07373047 -7.32714844 55.07373047 -7.171875 51.8671875 C-7.12160156 50.69929688 -7.07132813 49.53140625 -7.01953125 48.328125 C-6.95121094 47.10609375 -6.88289063 45.8840625 -6.8125 44.625 C-6.75964844 43.42617187 -6.70679688 42.22734375 -6.65234375 40.9921875 C-6.34819442 34.54139235 -5.86177936 28.15801553 -5.0625 21.75 C-5.35310303 22.46325439 -5.64370605 23.17650879 -5.94311523 23.91137695 C-9.14124664 31.68294328 -12.54268455 39.33578155 -16.125 46.9375 C-16.64126953 48.06736328 -17.15753906 49.19722656 -17.68945312 50.36132812 C-18.19541016 51.43189453 -18.70136719 52.50246094 -19.22265625 53.60546875 C-19.67261963 54.57121826 -20.12258301 55.53696777 -20.58618164 56.53198242 C-22.0625 58.75 -22.0625 58.75 -23.98999023 59.7590332 C-26.0625 59.75 -26.0625 59.75 -28.20605469 58.7409668 C-30.79060302 55.96913728 -31.07689013 53.60430773 -31.765625 49.89453125 C-31.89314148 49.23289474 -32.02065796 48.57125824 -32.15203857 47.88957214 C-32.55435022 45.78312646 -32.93366053 43.67328009 -33.3125 41.5625 C-33.58182556 40.13057496 -33.85264223 38.69892952 -34.125 37.26757812 C-34.78814318 33.76479328 -35.43073121 30.25859571 -36.0625 26.75 C-36.17730713 27.29599854 -36.29211426 27.84199707 -36.41040039 28.40454102 C-39.53910783 43.11267569 -43.48517356 57.42874198 -48.0625 71.75 C-51.27815572 71.02797389 -53.1410131 70.56448561 -55.0625 67.75 C-55.16391358 59.62423688 -52.19247337 51.23164162 -49.95117188 43.48291016 C-48.6212754 38.86824738 -47.49598664 34.27794106 -46.5625 29.5625 C-45.04131806 22.06210583 -42.61373189 14.94991924 -40.0625 7.75 C-37.0925 7.75 -34.1225 7.75 -31.0625 7.75 C-30.38125294 9.74508067 -29.71822791 11.74638693 -29.0625 13.75 C-28.7325 14.74 -28.4025 15.73 -28.0625 16.75 C-25.7111508 25.12901421 -24.71517529 34.0668822 -25.0625 42.75 C-24.4025 42.75 -23.7425 42.75 -23.0625 42.75 C-22.5365625 41.01363281 -22.5365625 41.01363281 -22 39.2421875 C-19.79510287 32.63525983 -16.89097691 26.32788886 -14.01953125 19.99121094 C-13.05678265 17.86235765 -12.10624991 15.72831769 -11.15625 13.59375 C-10.54239621 12.23144187 -9.92783808 10.86945084 -9.3125 9.5078125 C-9.03116211 8.87344269 -8.74982422 8.23907288 -8.45996094 7.58547974 C-4.81217437 -0.39283056 -4.81217437 -0.39283056 0 0 Z " fill="#F2F2F2" transform="translate(193.0625,164.25)"/>
<path d="M0 0 C5.49344857 5.10105938 7.82837258 7.64978046 8.16821289 15.3425293 C8.29418979 29.84262976 4.15835617 42.68797866 -6.09765625 53.23828125 C-14.32989018 60.8943696 -14.32989018 60.8943696 -19.375 63.4375 C-25.69642857 63.11607143 -25.69642857 63.11607143 -28.375 60.4375 C-29.18182324 51.86329373 -28.28054791 42.90891665 -27.9375 34.3125 C-27.89842529 33.30485596 -27.85935059 32.29721191 -27.8190918 31.2590332 C-27.77695557 30.30472412 -27.73481934 29.35041504 -27.69140625 28.3671875 C-27.65474854 27.51366699 -27.61809082 26.66014648 -27.58032227 25.78076172 C-27.38620307 23.56535625 -26.98116363 21.57309429 -26.375 19.4375 C-25.385 19.7675 -24.395 20.0975 -23.375 20.4375 C-23.705 22.0875 -24.035 23.7375 -24.375 25.4375 C-23.715 25.7675 -23.055 26.0975 -22.375 26.4375 C-22.705 26.7675 -23.035 27.0975 -23.375 27.4375 C-22.715 28.0975 -22.055 28.7575 -21.375 29.4375 C-21.045 27.4575 -20.715 25.4775 -20.375 23.4375 C-21.365 23.4375 -22.355 23.4375 -23.375 23.4375 C-22.385 19.9725 -22.385 19.9725 -21.375 16.4375 C-22.035 17.0975 -22.695 17.7575 -23.375 18.4375 C-24.365 18.4375 -25.355 18.4375 -26.375 18.4375 C-26.375 15.1375 -26.375 11.8375 -26.375 8.4375 C-28.85 7.4475 -28.85 7.4475 -31.375 6.4375 C-31.045 5.4475 -30.715 4.4575 -30.375 3.4375 C-27.89464864 2.36630203 -25.57447323 1.51942637 -23 0.75 C-22.27699707 0.53158447 -21.55399414 0.31316895 -20.80908203 0.08813477 C-13.61794914 -1.96225596 -6.99547008 -3.23864356 0 0 Z " fill="#F3F3F3" transform="translate(275.375,149.5625)"/>
<path d="M0 0 C3.875 0.875 3.875 0.875 5 2 C5.23363881 3.84891946 5.41303635 5.70488031 5.5625 7.5625 C5.64628906 8.57441406 5.73007812 9.58632813 5.81640625 10.62890625 C5.87699219 11.41136719 5.93757813 12.19382812 6 13 C7.216875 13.061875 8.43375 13.12375 9.6875 13.1875 C16.43644093 13.91827704 25.11548929 16.11548929 30 21 C30 22.32 30 23.64 30 25 C29.34 25 28.68 25 28 25 C28 25.66 28 26.32 28 27 C26.87980469 27.20496094 25.75960937 27.40992188 24.60546875 27.62109375 C23.13279176 27.89311689 21.66013664 28.16525849 20.1875 28.4375 C19.44951172 28.57220703 18.71152344 28.70691406 17.95117188 28.84570312 C14.88684924 29.41419737 11.96071047 30.01309651 9 31 C9.5982929 39.00694114 10.2470635 47.00605711 11 55 C8.525 55.495 8.525 55.495 6 56 C5.24074219 55.02417969 4.48148437 54.04835938 3.69921875 53.04296875 C2.69541876 51.7577295 1.69150662 50.47257784 0.6875 49.1875 C0.18798828 48.54490234 -0.31152344 47.90230469 -0.82617188 47.24023438 C-1.31279297 46.61826172 -1.79941406 45.99628906 -2.30078125 45.35546875 C-2.74591064 44.78465576 -3.19104004 44.21384277 -3.6496582 43.62573242 C-4.9896552 41.94751126 -4.9896552 41.94751126 -6.66870117 40.4152832 C-8 39 -8 39 -8 37 C-12.96161136 38.32479482 -17.58180491 39.96747794 -22.3125 42 C-23.52550781 42.515625 -24.73851562 43.03125 -25.98828125 43.5625 C-29.03213682 44.80976614 -29.03213682 44.80976614 -31 47 C-34.125 47.125 -34.125 47.125 -37 47 C-37 43 -37 43 -34.62890625 40.4921875 C-33.61651557 39.6085018 -32.59390283 38.73641947 -31.5625 37.875 C-27.78104071 34.85749277 -27.78104071 34.85749277 -25 31 C-24.34 31 -23.68 31 -23 31 C-22.566875 30.1028125 -22.566875 30.1028125 -22.125 29.1875 C-21 27 -21 27 -19 24 C-19.66 23.05125 -20.32 22.1025 -21 21.125 C-23 18 -23 18 -23 16 C-23.99 15.67 -24.98 15.34 -26 15 C-26.625 12.125 -26.625 12.125 -27 9 C-26.34 8.34 -25.68 7.68 -25 7 C-18.81912132 7.39452417 -12.92898732 9.29528213 -7 11 C-7 10.34 -7 9.68 -7 9 C-6.34 9 -5.68 9 -5 9 C-4.731875 8.2575 -4.46375 7.515 -4.1875 6.75 C-3.05770579 4.13363446 -1.79106798 2.19812889 0 0 Z " fill="#F4C900" transform="translate(389,257)"/>
<path d="M0 0 C2.0078125 0.23046875 2.0078125 0.23046875 5.0078125 2.23046875 C5.28833008 4.55517578 5.28833008 4.55517578 5.15234375 7.48828125 C5.10795166 8.57778076 5.06355957 9.66728027 5.01782227 10.78979492 C4.95264404 11.96646729 4.88746582 13.14313965 4.8203125 14.35546875 C4.76351318 15.55856689 4.70671387 16.76166504 4.64819336 18.0012207 C4.2387081 26.14768162 3.70750598 34.28622727 3.0703125 42.41796875 C2.99594971 43.38943848 2.92158691 44.3609082 2.8449707 45.36181641 C2.37347071 50.8477501 1.49709464 55.92762731 0.0078125 61.23046875 C-3.24309023 60.49477123 -5.02799858 60.04916886 -6.9921875 57.23046875 C-7.50390625 54.09375 -7.50390625 54.09375 -7.6796875 50.54296875 C-7.74542969 49.36347656 -7.81117188 48.18398437 -7.87890625 46.96875 C-7.91628906 46.06511719 -7.95367187 45.16148437 -7.9921875 44.23046875 C-13.29920403 45.04586973 -18.57728147 46.0142965 -22.9921875 49.23046875 C-26.51885036 54.07308611 -28.38294284 59.86993728 -30.15527344 65.54394531 C-30.43145508 66.10049805 -30.70763672 66.65705078 -30.9921875 67.23046875 C-32.4771875 67.72546875 -32.4771875 67.72546875 -33.9921875 68.23046875 C-35.5078125 67 -35.5078125 67 -36.9921875 65.23046875 C-37.1015625 63.1796875 -37.1015625 63.1796875 -36.7421875 60.91796875 C-36.62875 60.12519531 -36.5153125 59.33242187 -36.3984375 58.515625 C-36.06137885 56.61967007 -35.65992672 54.73529523 -35.2421875 52.85546875 C-34.67744661 50.19431498 -34.67744661 50.19431498 -36.4296875 48.48046875 C-37.203125 47.86171875 -37.203125 47.86171875 -37.9921875 47.23046875 C-37.9921875 46.57046875 -37.9921875 45.91046875 -37.9921875 45.23046875 C-33.5371875 44.73546875 -33.5371875 44.73546875 -28.9921875 44.23046875 C-28.90195312 43.55886719 -28.81171875 42.88726562 -28.71875 42.1953125 C-27.7980321 38.43818944 -26.13782952 35.20394937 -24.3671875 31.79296875 C-23.63762934 30.36738778 -22.9084703 28.9416025 -22.1796875 27.515625 C-21.81230469 26.80035645 -21.44492187 26.08508789 -21.06640625 25.34814453 C-20.05809076 23.36038804 -19.08092268 21.36123989 -18.1171875 19.3515625 C-8.88527388 0.18032844 -8.88527388 0.18032844 0 0 Z " fill="#F4F4F4" transform="translate(345.9921875,131.76953125)"/>
<path d="M0 0 C2.3125 1.875 2.3125 1.875 4 4 C4 4.66 4 5.32 4 6 C1.2092793 6.83661862 -1.58248012 7.66942737 -4.375 8.5 C-5.1690625 8.73847656 -5.963125 8.97695312 -6.78125 9.22265625 C-7.54179687 9.44824219 -8.30234375 9.67382812 -9.0859375 9.90625 C-10.1385376 10.22045898 -10.1385376 10.22045898 -11.21240234 10.54101562 C-13 11 -13 11 -15 11 C-14.98839844 12.08539063 -14.97679687 13.17078125 -14.96484375 14.2890625 C-14.95545862 15.73437327 -14.94635919 17.17968591 -14.9375 18.625 C-14.92912109 19.33785156 -14.92074219 20.05070312 -14.91210938 20.78515625 C-14.89289704 24.97344438 -15.1732673 28.8728462 -16 33 C-14.6696875 32.505 -14.6696875 32.505 -13.3125 32 C-10.29076653 31.08777857 -8.11626294 30.81669042 -5 31 C-4.34 32.65 -3.68 34.3 -3 36 C-4.76858691 36.67260351 -6.53996016 37.33788395 -8.3125 38 C-9.29863281 38.37125 -10.28476563 38.7425 -11.30078125 39.125 C-14 40 -14 40 -17 40 C-17 45.61 -17 51.22 -17 57 C-15.164375 56.360625 -13.32875 55.72125 -11.4375 55.0625 C-9.29511322 54.36433396 -7.14945789 53.67608262 -5 53 C-4.28070313 52.76925781 -3.56140625 52.53851563 -2.8203125 52.30078125 C-1.0625 51.875 -1.0625 51.875 2 52 C3.92030448 53.82639301 5.37463456 55.89335037 7 58 C2.96545152 59.37604522 -1.07855241 60.72189043 -5.125 62.0625 C-6.26710937 62.45244141 -7.40921875 62.84238281 -8.5859375 63.24414062 C-9.69453125 63.60830078 -10.803125 63.97246094 -11.9453125 64.34765625 C-13.46922607 64.85824585 -13.46922607 64.85824585 -15.02392578 65.37915039 C-19.09848194 66.22915829 -22.29891995 66.0766245 -25.86816406 63.81762695 C-27.54477778 61.12513578 -27.25580983 59.06470583 -27.109375 55.91796875 C-27.03481079 54.06872803 -27.03481079 54.06872803 -26.95874023 52.18212891 C-26.88950072 50.85056818 -26.81991385 49.51902549 -26.75 48.1875 C-26.69010433 46.83518426 -26.63160032 45.48280618 -26.57446289 44.13037109 C-26.45641042 41.39908575 -26.32939854 38.66846082 -26.19384766 35.93798828 C-26.01638074 32.33277239 -25.85393195 28.72734673 -25.69921875 25.12109375 C-25.48112781 20.07992958 -25.24623044 15.03986551 -25 10 C-25.66 9.67 -26.32 9.34 -27 9 C-26.67 8.01 -26.34 7.02 -26 6 C-23.59375 5.15625 -23.59375 5.15625 -20.5 4.5 C-16.58888708 3.62104597 -12.83539259 2.66768739 -9.0625 1.3125 C-3.26849063 -0.65369813 -3.26849063 -0.65369813 0 0 Z " fill="#F1F1F1" transform="translate(236,155)"/>
<path d="M0 0 C1.49080078 0.02707031 1.49080078 0.02707031 3.01171875 0.0546875 C3.77097656 0.07789063 4.53023437 0.10109375 5.3125 0.125 C5.6425 1.445 5.9725 2.765 6.3125 4.125 C0.74182723 5.71662079 -3.89851581 6.33174944 -9.6875 6.125 C-10.0175 6.785 -10.3475 7.445 -10.6875 8.125 C-11.6775 7.63 -11.6775 7.63 -12.6875 7.125 C-12.6875 7.785 -12.6875 8.445 -12.6875 9.125 C-15.9875 9.455 -19.2875 9.785 -22.6875 10.125 C-22.6875 10.785 -22.6875 11.445 -22.6875 12.125 C-29.45382168 14.30212665 -33.24161399 14.17214611 -39.6875 11.125 C-39.6875 11.785 -39.6875 12.445 -39.6875 13.125 C-40.739375 13.393125 -41.79125 13.66125 -42.875 13.9375 C-46.58388681 14.90012063 -46.58388681 14.90012063 -49.0625 16.6875 C-52.26783954 18.44280499 -54.89672967 18.61010326 -58.50390625 18.81640625 C-60.91563357 19.1572407 -62.53889957 20.0130439 -64.6875 21.125 C-67.4375 21.25 -67.4375 21.25 -69.6875 21.125 C-68.6975 20.795 -67.7075 20.465 -66.6875 20.125 C-66.6875 19.465 -66.6875 18.805 -66.6875 18.125 C-67.3475 17.795 -68.0075 17.465 -68.6875 17.125 C-66.7075 16.465 -64.7275 15.805 -62.6875 15.125 C-66.32307769 13.91314077 -67.32533618 14.53239608 -70.6875 16.125 C-71.1825 16.62 -71.1825 16.62 -71.6875 17.125 C-70.6975 18.115 -70.6975 18.115 -69.6875 19.125 C-70.3475 19.125 -71.0075 19.125 -71.6875 19.125 C-71.1925 20.61 -71.1925 20.61 -70.6875 22.125 C-72.0075 22.455 -73.3275 22.785 -74.6875 23.125 C-74.1925 21.64 -74.1925 21.64 -73.6875 20.125 C-75.0075 20.125 -76.3275 20.125 -77.6875 20.125 C-78.0175 20.785 -78.3475 21.445 -78.6875 22.125 C-80.6675 22.125 -82.6475 22.125 -84.6875 22.125 C-82.48952597 19.92702597 -81.51203855 19.66602483 -78.5625 19 C-77.28375 18.71125 -76.005 18.4225 -74.6875 18.125 C-77.13707355 18.125 -79.34619111 18.58865566 -81.75 19.0625 C-82.64847656 19.23652344 -83.54695313 19.41054688 -84.47265625 19.58984375 C-86.64807607 19.91182479 -86.64807607 19.91182479 -87.6875 21.125 C-87.0275 21.785 -86.3675 22.445 -85.6875 23.125 C-86.0175 23.785 -86.3475 24.445 -86.6875 25.125 C-89.3275 25.125 -91.9675 25.125 -94.6875 25.125 C-95.1825 24.135 -95.1825 24.135 -95.6875 23.125 C-95.6875 24.115 -95.6875 25.105 -95.6875 26.125 C-96.3475 25.795 -97.0075 25.465 -97.6875 25.125 C-97.6875 24.795 -97.6875 24.465 -97.6875 24.125 C-98.37457031 24.3415625 -99.06164062 24.558125 -99.76953125 24.78125 C-100.67058594 25.0596875 -101.57164062 25.338125 -102.5 25.625 C-103.39332031 25.9034375 -104.28664062 26.181875 -105.20703125 26.46875 C-107.6875 27.125 -107.6875 27.125 -110.6875 27.125 C-110.6875 27.785 -110.6875 28.445 -110.6875 29.125 C-109.6975 29.455 -108.7075 29.785 -107.6875 30.125 C-107.6875 31.115 -107.6875 32.105 -107.6875 33.125 C-108.491875 33.2075 -109.29625 33.29 -110.125 33.375 C-114.0295359 34.19700756 -117.17374452 35.62671923 -120.734375 37.3828125 C-121.37890625 37.62773437 -122.0234375 37.87265625 -122.6875 38.125 C-124.02083333 37.45833333 -125.35416667 36.79166667 -126.6875 36.125 C-129.0275417 36.40741883 -131.36254723 36.73750787 -133.6875 37.125 C-133.6875 37.785 -133.6875 38.445 -133.6875 39.125 C-132.6975 39.455 -131.7075 39.785 -130.6875 40.125 C-133.6575 40.785 -136.6275 41.445 -139.6875 42.125 C-140.0175 41.465 -140.3475 40.805 -140.6875 40.125 C-141.6775 39.795 -142.6675 39.465 -143.6875 39.125 C-142.90375 38.856875 -142.12 38.58875 -141.3125 38.3125 C-138.40635077 37.27685568 -138.40635077 37.27685568 -136.6875 34.125 C-134.03173828 32.94262695 -134.03173828 32.94262695 -130.6328125 31.80078125 C-130.0147171 31.58996414 -129.3966217 31.37914703 -128.75979614 31.16194153 C-127.42718232 30.70868202 -126.09299708 30.26002179 -124.75744629 29.81549072 C-122.70622285 29.13124555 -120.66073279 28.43202049 -118.61621094 27.72802734 C-91.98960537 18.58134001 -65.2059925 10.18780438 -37.6875 4.125 C-36.93001465 3.95597168 -36.1725293 3.78694336 -35.39208984 3.61279297 C-23.26628498 0.93207167 -23.26628498 0.93207167 -19.6875 2.125 C-19.1925 3.115 -19.1925 3.115 -18.6875 4.125 C-17.08181334 3.84182074 -15.47797953 3.54812209 -13.875 3.25 C-12.98167969 3.08757812 -12.08835938 2.92515625 -11.16796875 2.7578125 C-0.32779255 -0.00771277 -0.32779255 -0.00771277 0 0 Z " fill="#E9BF00" transform="translate(267.6875,320.875)"/>
<path d="M0 0 C3.15954305 2.54137159 4.71540886 4.14622659 6 8 C7.09745678 18.97456784 2.94373684 30.37195741 -3.515625 39.1953125 C-8.49264706 45.24632353 -8.49264706 45.24632353 -12 47 C-11.62183727 34.64822153 -11.1674432 22.31114303 -10.0625 10 C-9.98789551 9.10514893 -9.91329102 8.21029785 -9.83642578 7.28833008 C-9.6334379 5.18352429 -9.32748558 3.08905832 -9 1 C-5.86128812 -0.56935594 -3.46144178 -0.35201103 0 0 Z " fill="#060606" transform="translate(268,156)"/>
<path d="M0 0 C7.875 0.875 7.875 0.875 9 2 C9.13511621 4.30640228 9.19016498 6.56686486 9.1875 8.875 C9.18669434 9.60952393 9.18588867 10.34404785 9.18505859 11.10083008 C9.01677907 27.39259725 7.7904424 43.94011343 5 60 C3.25 60.6875 3.25 60.6875 1 61 C-1.11914062 59.87939453 -1.11914062 59.87939453 -3 58 C-3.44335938 55.44873047 -3.44335938 55.44873047 -3.34375 52.2421875 C-3.30765625 50.99018555 -3.2715625 49.73818359 -3.234375 48.44824219 C-3.16101091 46.96525161 -3.08250491 45.48251013 -3 44 C-2.95359375 43.15699341 -2.9071875 42.31398682 -2.859375 41.44543457 C-2.46914646 34.6673477 -1.98938886 27.89652142 -1.5 21.125 C-1.35502235 19.06904185 -1.21048782 17.0130524 -1.06640625 14.95703125 C-0.71603973 9.97097901 -0.3596979 4.98538739 0 0 Z " fill="#F2F2F2" transform="translate(294,142)"/>
<path d="M0 0 C1.32 0.66 2.64 1.32 4 2 C3.34 2.33 2.68 2.66 2 3 C2.515625 3.5775 3.03125 4.155 3.5625 4.75 C5 7 5 7 4.6875 9.25 C4.460625 9.8275 4.23375 10.405 4 11 C2.02 11 0.04 11 -2 11 C-2 10.34 -2 9.68 -2 9 C-4.64 9.33 -7.28 9.66 -10 10 C-10 9.34 -10 8.68 -10 8 C-12.77119784 9.7058258 -12.77119784 9.7058258 -14 11 C-34.44614883 14.5323107 -34.44614883 14.5323107 -39.5 11.5 C-39.995 11.005 -40.49 10.51 -41 10 C-41 11.32 -41 12.64 -41 14 C-45.455 14.495 -45.455 14.495 -50 15 C-50.495 13.515 -50.495 13.515 -51 12 C-51.66 12 -52.32 12 -53 12 C-53 12.66 -53 13.32 -53 14 C-54.32 14 -55.64 14 -57 14 C-57 14.99 -57 15.98 -57 17 C-58.32 16.67 -59.64 16.34 -61 16 C-61 15.01 -61 14.02 -61 13 C-69.19917168 13.66993641 -77.15913677 15.06496351 -85.22851562 16.62695312 C-86.15986328 16.80291016 -87.09121094 16.97886719 -88.05078125 17.16015625 C-88.88262939 17.32136963 -89.71447754 17.48258301 -90.5715332 17.64868164 C-93.08136686 18.01177108 -95.46767166 18.06067654 -98 18 C-94.15796085 15.69274368 -89.9643136 15.02133059 -85.625 14.1875 C-84.77591064 14.0215332 -83.92682129 13.85556641 -83.05200195 13.68457031 C-75.44936044 12.22625456 -67.82484535 10.88864687 -60.19329834 9.59121704 C-58.21839475 9.25525567 -56.24419997 8.9151362 -54.27001953 8.57495117 C-53.04009277 8.36974854 -51.81016602 8.1645459 -50.54296875 7.953125 C-48.9036438 7.67710449 -48.9036438 7.67710449 -47.23120117 7.39550781 C-43.79088131 6.9744033 -40.46256977 6.93327012 -37 7 C-37 7.66 -37 8.32 -37 9 C-36.23816406 8.86722656 -35.47632813 8.73445313 -34.69140625 8.59765625 C-28.4690845 7.53341395 -22.28132203 6.6281322 -16 6 C-16 5.01 -16 4.02 -16 3 C-14.35 3 -12.7 3 -11 3 C-11 3.66 -11 4.32 -11 5 C-9.68 4.67 -8.36 4.34 -7 4 C-7.495 3.01 -7.495 3.01 -8 2 C-7.236875 2.04125 -6.47375 2.0825 -5.6875 2.125 C-2.77281584 2.22080824 -2.77281584 2.22080824 0 0 Z " fill="#917800" transform="translate(348,324)"/>
<path d="M0 0 C1.49080078 0.02707031 1.49080078 0.02707031 3.01171875 0.0546875 C3.77097656 0.07789063 4.53023438 0.10109375 5.3125 0.125 C5.8075 2.105 5.8075 2.105 6.3125 4.125 C0.74182723 5.71662079 -3.89851581 6.33174944 -9.6875 6.125 C-10.0175 6.785 -10.3475 7.445 -10.6875 8.125 C-11.3475 7.795 -12.0075 7.465 -12.6875 7.125 C-12.6875 7.785 -12.6875 8.445 -12.6875 9.125 C-15.9875 9.455 -19.2875 9.785 -22.6875 10.125 C-22.6875 10.785 -22.6875 11.445 -22.6875 12.125 C-24.14213481 12.51409985 -25.60141207 12.88588029 -27.0625 13.25 C-27.87460938 13.45882813 -28.68671875 13.66765625 -29.5234375 13.8828125 C-30.23757812 13.96273438 -30.95171875 14.04265625 -31.6875 14.125 C-32.3475 13.465 -33.0075 12.805 -33.6875 12.125 C-33.048125 12.00125 -32.40875 11.8775 -31.75 11.75 C-31.069375 11.54375 -30.38875 11.3375 -29.6875 11.125 C-29.3575 10.465 -29.0275 9.805 -28.6875 9.125 C-28.3575 8.795 -28.0275 8.465 -27.6875 8.125 C-28.96625 8.434375 -30.245 8.74375 -31.5625 9.0625 C-36.57508722 10.18614833 -41.57260956 10.71922581 -46.6875 11.125 C-46.06359375 10.82851563 -45.4396875 10.53203125 -44.796875 10.2265625 C-42.64952908 9.10517074 -41.30654165 7.90594582 -39.6875 6.125 C-40.3475 5.795 -41.0075 5.465 -41.6875 5.125 C-38.58607059 4.42473482 -35.4810359 3.74201544 -32.375 3.0625 C-31.49392578 2.86333984 -30.61285156 2.66417969 -29.70507812 2.45898438 C-28.85751953 2.27529297 -28.00996094 2.09160156 -27.13671875 1.90234375 C-25.96629028 1.64312134 -25.96629028 1.64312134 -24.7722168 1.37866211 C-22.6875 1.125 -22.6875 1.125 -19.6875 2.125 C-19.3575 2.785 -19.0275 3.445 -18.6875 4.125 C-17.08181334 3.84182074 -15.47797953 3.54812209 -13.875 3.25 C-12.53501953 3.00636719 -12.53501953 3.00636719 -11.16796875 2.7578125 C-0.32779255 -0.00771277 -0.32779255 -0.00771277 0 0 Z " fill="#9F8300" transform="translate(267.6875,320.875)"/>
<path d="M0 0 C1.9959722 0.67863055 3.99568551 1.34641919 6 2 C5.67 2.99 5.34 3.98 5 5 C2.36 5 -0.28 5 -3 5 C-3.495 4.01 -3.495 4.01 -4 3 C-4 3.99 -4 4.98 -4 6 C-4.66 5.67 -5.32 5.34 -6 5 C-6 4.67 -6 4.34 -6 4 C-6.68707031 4.2165625 -7.37414062 4.433125 -8.08203125 4.65625 C-9.43361328 5.07390625 -9.43361328 5.07390625 -10.8125 5.5 C-11.70582031 5.7784375 -12.59914062 6.056875 -13.51953125 6.34375 C-16 7 -16 7 -19 7 C-19 7.66 -19 8.32 -19 9 C-18.01 9.33 -17.02 9.66 -16 10 C-16 10.99 -16 11.98 -16 13 C-17.2065625 13.12375 -17.2065625 13.12375 -18.4375 13.25 C-22.3420359 14.07200756 -25.48624452 15.50171923 -29.046875 17.2578125 C-30.01367188 17.62519531 -30.01367188 17.62519531 -31 18 C-32.33333333 17.33333333 -33.66666667 16.66666667 -35 16 C-37.3400417 16.28241883 -39.67504723 16.61250787 -42 17 C-42 17.66 -42 18.32 -42 19 C-41.01 19.33 -40.02 19.66 -39 20 C-41.97 20.66 -44.94 21.32 -48 22 C-48.33 21.34 -48.66 20.68 -49 20 C-49.99 19.67 -50.98 19.34 -52 19 C-51.21625 18.731875 -50.4325 18.46375 -49.625 18.1875 C-46.71885077 17.15185568 -46.71885077 17.15185568 -45 14 C-42.27832031 12.80224609 -42.27832031 12.80224609 -38.828125 11.6484375 C-37.55398949 11.21465617 -36.27990261 10.78073196 -35.00585938 10.34667969 C-34.34513428 10.12556519 -33.68440918 9.90445068 -33.00366211 9.67663574 C-30.41228728 8.80152969 -27.83673851 7.88474477 -25.26062012 6.96588135 C-22.73177347 6.06564441 -20.19785255 5.18022004 -17.66357422 4.29541016 C-16.36536724 3.84059051 -15.06819501 3.38280859 -13.77197266 2.92236328 C-11.86610691 2.24584467 -9.95654576 1.57976459 -8.046875 0.9140625 C-6.93151367 0.5217041 -5.81615234 0.1293457 -4.66699219 -0.27490234 C-2 -1 -2 -1 0 0 Z " fill="#E3BB00" transform="translate(176,341)"/>
<path d="M0 0 C2.125 0.9375 2.125 0.9375 4 2 C3.67 3.32 3.34 4.64 3 6 C3.66 6.33 4.32 6.66 5 7 C4.46048934 13.68993219 3.11293829 19.63460728 1 26 C-1.27097172 25.60845315 -2.85720387 25.09364191 -4.79296875 23.82421875 C-6.645367 21.02463952 -5.9082098 19.04906344 -5.3125 15.8125 C-5.10238281 14.65878906 -4.89226562 13.50507813 -4.67578125 12.31640625 C-4.45277344 11.22199219 -4.22976562 10.12757813 -4 9 C-3.82855469 8.14277344 -3.65710938 7.28554687 -3.48046875 6.40234375 C-3.07367073 4.58002093 -2.54910995 2.78460734 -2 1 C-1.34 0.67 -0.68 0.34 0 0 Z " fill="#EDEDED" transform="translate(144,210)"/>
<path d="M0 0 C-5.57731631 7.30820758 -10.81950179 7.98534644 -19.5 9.6875 C-20.65371094 9.92533203 -21.80742187 10.16316406 -22.99609375 10.40820312 C-24.65318359 10.73788086 -24.65318359 10.73788086 -26.34375 11.07421875 C-27.35630859 11.27619873 -28.36886719 11.47817871 -29.41210938 11.6862793 C-32 12 -32 12 -35 11 C-35.33 10.34 -35.66 9.68 -36 9 C-35.071875 8.731875 -34.14375 8.46375 -33.1875 8.1875 C-30.06633961 7.29393071 -30.06633961 7.29393071 -28.59301758 5.4987793 C-26.55695003 3.58315958 -25.05817619 3.33476364 -22.32421875 2.83203125 C-21.41349609 2.66123047 -20.50277344 2.49042969 -19.56445312 2.31445312 C-18.61505859 2.14880859 -17.66566406 1.98316406 -16.6875 1.8125 C-15.74970703 1.63525391 -14.81191406 1.45800781 -13.84570312 1.27539062 C-9.17757551 0.42335042 -4.76659257 -0.23154302 0 0 Z " fill="#F7CB00" transform="translate(288,336)"/>
<path d="M0 0 C0.33 0.99 0.66 1.98 1 3 C1.66 3.33 2.32 3.66 3 4 C2.01 4 1.02 4 0 4 C0 9.94 0 15.88 0 22 C-1.588125 22.66 -3.17625 23.32 -4.8125 24 C-5.70582031 24.37125 -6.59914063 24.7425 -7.51953125 25.125 C-10 26 -10 26 -13 26 C-11.36036204 20.05384306 -8.37624538 14.96477922 -5.375 9.625 C-4.6015625 8.23474609 -4.6015625 8.23474609 -3.8125 6.81640625 C-2.54617189 4.54170575 -1.27524075 2.26971208 0 0 Z " fill="#0D0D0D" transform="translate(341,145)"/>
<path d="M0 0 C-0.33 1.32 -0.66 2.64 -1 4 C-2.258125 4.020625 -3.51625 4.04125 -4.8125 4.0625 C-5.52019531 4.07410156 -6.22789062 4.08570313 -6.95703125 4.09765625 C-9 4 -9 4 -12 3 C-12 3.66 -12 4.32 -12 5 C-13.051875 5.268125 -14.10375 5.53625 -15.1875 5.8125 C-18.89638681 6.77512063 -18.89638681 6.77512063 -21.375 8.5625 C-24.58033954 10.31780499 -27.20922967 10.48510326 -30.81640625 10.69140625 C-33.22813357 11.0322407 -34.85139957 11.8880439 -37 13 C-39.75 13.125 -39.75 13.125 -42 13 C-41.01 12.67 -40.02 12.34 -39 12 C-39 11.34 -39 10.68 -39 10 C-39.66 9.67 -40.32 9.34 -41 9 C-39.329375 8.87625 -39.329375 8.87625 -37.625 8.75 C-36.42875 8.5025 -35.2325 8.255 -34 8 C-33.68063477 7.34016113 -33.36126953 6.68032227 -33.03222656 6.00048828 C-32 4 -32 4 -30.12402344 3.39404297 C-29.37668945 3.34393066 -28.62935547 3.29381836 -27.859375 3.2421875 C-26.62380859 3.13970703 -26.62380859 3.13970703 -25.36328125 3.03515625 C-24.50089844 2.98230469 -23.63851562 2.92945313 -22.75 2.875 C-14.9766948 2.31891881 -7.71488913 -0.30859557 0 0 Z " fill="#EAC100" transform="translate(240,329)"/>
<path d="M0 0 C1.32 0.66 2.64 1.32 4 2 C3.01 2.495 3.01 2.495 2 3 C2.515625 3.5775 3.03125 4.155 3.5625 4.75 C5 7 5 7 4.6875 9.25 C4.460625 9.8275 4.23375 10.405 4 11 C2.02 11 0.04 11 -2 11 C-2 10.34 -2 9.68 -2 9 C-4.64 9.33 -7.28 9.66 -10 10 C-10 9.34 -10 8.68 -10 8 C-12.77119784 9.7058258 -12.77119784 9.7058258 -14 11 C-15.51928038 11.07179964 -17.04167482 11.08392007 -18.5625 11.0625 C-19.38878906 11.05347656 -20.21507812 11.04445313 -21.06640625 11.03515625 C-21.70449219 11.02355469 -22.34257812 11.01195312 -23 11 C-23.33 10.01 -23.66 9.02 -24 8 C-21.36 8 -18.72 8 -16 8 C-16 6.35 -16 4.7 -16 3 C-14.35 3 -12.7 3 -11 3 C-11 3.66 -11 4.32 -11 5 C-9.68 4.67 -8.36 4.34 -7 4 C-7.33 3.34 -7.66 2.68 -8 2 C-7.236875 2.04125 -6.47375 2.0825 -5.6875 2.125 C-2.77281584 2.22080824 -2.77281584 2.22080824 0 0 Z " fill="#897100" transform="translate(348,324)"/>
<path d="M0 0 C0.66 1.32 1.32 2.64 2 4 C6.62 2.68 11.24 1.36 16 0 C16.66 0.99 17.32 1.98 18 3 C16.7934375 3.12375 16.7934375 3.12375 15.5625 3.25 C11.6579641 4.07200756 8.51375548 5.50171923 4.953125 7.2578125 C4.30859375 7.50273437 3.6640625 7.74765625 3 8 C1.66666667 7.33333333 0.33333333 6.66666667 -1 6 C-3.3400417 6.28241883 -5.67504723 6.61250787 -8 7 C-8 7.66 -8 8.32 -8 9 C-7.01 9.33 -6.02 9.66 -5 10 C-7.97 10.66 -10.94 11.32 -14 12 C-14.33 11.34 -14.66 10.68 -15 10 C-15.99 9.67 -16.98 9.34 -18 9 C-17.21625 8.731875 -16.4325 8.46375 -15.625 8.1875 C-12.71885077 7.15185568 -12.71885077 7.15185568 -11 4 C-8.3984375 2.83203125 -8.3984375 2.83203125 -5.375 1.8125 C-4.37210938 1.46832031 -3.36921875 1.12414062 -2.3359375 0.76953125 C-1.17964844 0.38861328 -1.17964844 0.38861328 0 0 Z " fill="#CFAA00" transform="translate(142,351)"/>
<path d="M0 0 C0 0.99 0 1.98 0 3 C-2.97 3.99 -5.94 4.98 -9 6 C-9 6.66 -9 7.32 -9 8 C-8.34 8.33 -7.68 8.66 -7 9 C-9.95670218 10.00486895 -12.91561577 11.00306024 -15.875 12 C-16.71675781 12.28617187 -17.55851562 12.57234375 -18.42578125 12.8671875 C-19.23144531 13.13789063 -20.03710938 13.40859375 -20.8671875 13.6875 C-21.98262939 14.06455078 -21.98262939 14.06455078 -23.12060547 14.44921875 C-25 15 -25 15 -27 15 C-27 14.01 -27 13.02 -27 12 C-31.455 12.495 -31.455 12.495 -36 13 C-36 12.34 -36 11.68 -36 11 C-31.38 9.68 -26.76 8.36 -22 7 C-21.67 7.99 -21.34 8.98 -21 10 C-21 9.01 -21 8.02 -21 7 C-18.03 7.66 -15.06 8.32 -12 9 C-12 8.34 -12 7.68 -12 7 C-12.99 6.34 -13.98 5.68 -15 5 C-11.85224323 2.90149549 -10.0492934 2.51433498 -6.375 1.9375 C-2.87862912 1.63491174 -2.87862912 1.63491174 0 0 Z " fill="#5E4D00" transform="translate(193,337)"/>
<path d="M0 0 C0.33 0 0.66 0 1 0 C1.09377123 7.41834582 1.17402193 14.66236293 0 22 C-1.75 22.6875 -1.75 22.6875 -4 23 C-6.25 21.9375 -6.25 21.9375 -8 20 C-8.25 16.8125 -8.25 16.8125 -8 14 C-7.34 13.67 -6.68 13.34 -6 13 C-6.33 12.01 -6.66 11.02 -7 10 C-5.68 9.67 -4.36 9.34 -3 9 C-3.33 7.68 -3.66 6.36 -4 5 C-2.68 5.33 -1.36 5.66 0 6 C-0.2784375 4.7934375 -0.2784375 4.7934375 -0.5625 3.5625 C-0.706875 2.716875 -0.85125 1.87125 -1 1 C-0.67 0.67 -0.34 0.34 0 0 Z " fill="#F4F4F4" transform="translate(299,180)"/>
<path d="M0 0 C0.33 1.32 0.66 2.64 1 4 C-4.57067277 5.59162079 -9.21101581 6.20674944 -15 6 C-15.33 6.66 -15.66 7.32 -16 8 C-16.66 7.67 -17.32 7.34 -18 7 C-18 7.66 -18 8.32 -18 9 C-21.63 8.67 -25.26 8.34 -29 8 C-28.67 7.34 -28.34 6.68 -28 6 C-25.71484375 5.5859375 -25.71484375 5.5859375 -22.9375 5.375 C-22.01839844 5.30023438 -21.09929687 5.22546875 -20.15234375 5.1484375 C-19.08693359 5.07496094 -19.08693359 5.07496094 -18 5 C-18 4.34 -18 3.68 -18 3 C-11.92122066 -0.24201565 -6.81598387 -0.33278764 0 0 Z " fill="#EDC300" transform="translate(273,321)"/>
<path d="M0 0 C0 0.66 0 1.32 0 2 C0.76183594 1.855625 1.52367187 1.71125 2.30859375 1.5625 C8.65247896 0.42202626 14.55770944 -0.21474302 21 0 C20.67 0.99 20.34 1.98 20 3 C18.02 3 16.04 3 14 3 C14 3.66 14 4.32 14 5 C9.21414833 5.95717033 4.8585734 6.31859498 0 6 C-0.40476562 5.50371094 -0.80953125 5.00742187 -1.2265625 4.49609375 C-4.1313264 2.04559909 -7.57340595 2.68939985 -11.1875 2.8125 C-12.31188477 2.83280273 -12.31188477 2.83280273 -13.45898438 2.85351562 C-15.30629767 2.88881461 -17.15324066 2.94262083 -19 3 C-19 2.67 -19 2.34 -19 2 C-12.6221448 0.82706111 -6.49678438 -0.29530838 0 0 Z " fill="#836C00" transform="translate(311,331)"/>
<path d="M0 0 C5.75 -0.125 5.75 -0.125 8 1 C8 3.64 8 6.28 8 9 C5.69 9.66 3.38 10.32 1 11 C-0.32 9.35 -1.64 7.7 -3 6 C-2 4 -1 2 0 0 Z " fill="#0A0800" transform="translate(381,275)"/>
<path d="M0 0 C0.66 0 1.32 0 2 0 C1.67 1.98 1.34 3.96 1 6 C1.66 6.33 2.32 6.66 3 7 C3 9.31 3 11.62 3 14 C3.66 13.34 4.32 12.68 5 12 C4.67 17.61 4.34 23.22 4 29 C3.67 29 3.34 29 3 29 C3 25.7 3 22.4 3 19 C2.01 19.33 1.02 19.66 0 20 C0 17.69 0 15.38 0 13 C-0.66 13 -1.32 13 -2 13 C-2 12.01 -2 11.02 -2 10 C-2.66 10.99 -3.32 11.98 -4 13 C-4 10.03 -4 7.06 -4 4 C-3.01 4 -2.02 4 -1 4 C-0.67 2.68 -0.34 1.36 0 0 Z M2 15 C3 17 3 17 3 17 Z " fill="#B5B5B5" transform="translate(345,145)"/>
<path d="M0 0 C5.75 0.75 5.75 0.75 8 3 C1.16047845 5.81627358 -5.77754385 7.44761232 -13 9 C-12.34 7.35 -11.68 5.7 -11 4 C-9.68 4 -8.36 4 -7 4 C-6.67 3.34 -6.34 2.68 -6 2 C-4.02 2 -2.04 2 0 2 C0 1.34 0 0.68 0 0 Z " fill="#372D00" transform="translate(228,332)"/>
<path d="M0 0 C3.875 0.875 3.875 0.875 5 2 C5.07205511 3.68608966 5.08386068 5.37500659 5.0625 7.0625 C5.05347656 7.98160156 5.04445313 8.90070313 5.03515625 9.84765625 C5.02355469 10.55792969 5.01195312 11.26820313 5 12 C4.67 12 4.34 12 4 12 C3.67 10.68 3.34 9.36 3 8 C3 8.66 3 9.32 3 10 C2.01 10 1.02 10 0 10 C0 10.99 0 11.98 0 13 C-1.32 13.33 -2.64 13.66 -4 14 C-3.34 15.32 -2.68 16.64 -2 18 C-2.99 18 -3.98 18 -5 18 C-5 15.36 -5 12.72 -5 10 C-4.34 9.67 -3.68 9.34 -3 9 C-2.09274566 6.88672575 -2.09274566 6.88672575 -1.375 4.4375 C-1.11460937 3.61121094 -0.85421875 2.78492188 -0.5859375 1.93359375 C-0.39257812 1.29550781 -0.19921875 0.65742188 0 0 Z " fill="#949494" transform="translate(296,176)"/>
<path d="M0 0 C0.99 0.33 1.98 0.66 3 1 C2.67 2.65 2.34 4.3 2 6 C2.66 6.33 3.32 6.66 4 7 C3.67 7.33 3.34 7.66 3 8 C3.25723969 10.02919843 3.25723969 10.02919843 4 12 C4.66 12.33 5.32 12.66 6 13 C5 16 5 16 3.0625 17.1875 C1 18 1 18 -1 18 C-1.02707139 15.75006641 -1.04642829 13.50003905 -1.0625 11.25 C-1.07410156 9.99703125 -1.08570313 8.7440625 -1.09765625 7.453125 C-1.02021027 4.71463499 -0.82780815 2.58119707 0 0 Z " fill="#D6D6D6" transform="translate(249,169)"/>
<path d="M0 0 C-3.50538557 1.96301592 -7.13351728 2.95902388 -11 4 C-9.68 4.66 -8.36 5.32 -7 6 C-7.33 6.66 -7.66 7.32 -8 8 C-9.093125 7.95875 -10.18625 7.9175 -11.3125 7.875 C-15.08892229 7.67925334 -15.08892229 7.67925334 -18 10 C-20.6875 10.125 -20.6875 10.125 -23 10 C-22.01 9.67 -21.02 9.34 -20 9 C-20 8.34 -20 7.68 -20 7 C-20.66 6.67 -21.32 6.34 -22 6 C-20.329375 5.87625 -20.329375 5.87625 -18.625 5.75 C-17.42875 5.5025 -16.2325 5.255 -15 5 C-14.690625 4.34 -14.38125 3.68 -14.0625 3 C-13.711875 2.34 -13.36125 1.68 -13 1 C-8.62015065 0.13839029 -4.46429222 -0.13950913 0 0 Z " fill="#C8A500" transform="translate(221,332)"/>
<path d="M0 0 C0.99 0.99 1.98 1.98 3 3 C1.7934375 3.12375 1.7934375 3.12375 0.5625 3.25 C-3.3420359 4.07200756 -6.48624452 5.50171923 -10.046875 7.2578125 C-10.69140625 7.50273437 -11.3359375 7.74765625 -12 8 C-12.66 7.67 -13.32 7.34 -14 7 C-15.0209375 6.7834375 -15.0209375 6.7834375 -16.0625 6.5625 C-16.701875 6.376875 -17.34125 6.19125 -18 6 C-18.33 5.34 -18.66 4.68 -19 4 C-17.02 3.34 -15.04 2.68 -13 2 C-13 2.66 -13 3.32 -13 4 C-8.71 2.68 -4.42 1.36 0 0 Z " fill="#776200" transform="translate(157,351)"/>
<path d="M0 0 C-0.33 1.32 -0.66 2.64 -1 4 C-2.65 4 -4.3 4 -6 4 C-6.33 4.66 -6.66 5.32 -7 6 C-8.64363134 6.72159424 -10.31050386 7.39351421 -12 8 C-12.66 6.02 -13.32 4.04 -14 2 C-12.04396149 1.47061343 -10.08507711 0.95173199 -8.125 0.4375 C-7.03445312 0.14746094 -5.94390625 -0.14257812 -4.8203125 -0.44140625 C-2 -1 -2 -1 0 0 Z " fill="#C8C8C8" transform="translate(238,208)"/>
<path d="M0 0 C0.33 0.99 0.66 1.98 1 3 C-1.26860837 3.5304408 -3.53998489 4.04905434 -5.8125 4.5625 C-7.70935547 4.99755859 -7.70935547 4.99755859 -9.64453125 5.44140625 C-13 6 -13 6 -16 5 C-16.33 4.34 -16.66 3.68 -17 3 C-15.10614563 2.49255577 -13.20981334 1.99435426 -11.3125 1.5 C-9.72888672 1.08234375 -9.72888672 1.08234375 -8.11328125 0.65625 C-5.28857328 0.0608285 -2.87163292 -0.12786492 0 0 Z " fill="#A28500" transform="translate(269,342)"/>
<path d="M0 0 C3.16115776 1.36983503 3.9927092 1.9890638 6 5 C4.42085985 5.53341184 2.83645613 6.05125763 1.25 6.5625 C0.36828125 6.85253906 -0.5134375 7.14257812 -1.421875 7.44140625 C-4.07834316 8.01697435 -5.47031106 7.89248371 -8 7 C-5.47043472 3.9083091 -2.77545388 3.09068668 1 2 C0.34 1.67 -0.32 1.34 -1 1 C-0.67 0.67 -0.34 0.34 0 0 Z " fill="#F8F8F8" transform="translate(237,208)"/>
<path d="M0 0 C0.33 0 0.66 0 1 0 C1.05394705 2.60444348 1.09364469 5.20776998 1.125 7.8125 C1.14175781 8.55048828 1.15851563 9.28847656 1.17578125 10.04882812 C1.21074628 13.91246426 1.19397555 15.70903668 -1 19 C-1.79953138 15.71303767 -2.09658936 14.28976808 -1 11 C-1.99 10.67 -2.98 10.34 -4 10 C-3.525625 9.278125 -3.05125 8.55625 -2.5625 7.8125 C-1.05847097 5.10524774 -0.43400818 3.03805725 0 0 Z " fill="#FCFCFC" transform="translate(349,141)"/>
<path d="M0 0 C0.66 0 1.32 0 2 0 C1.67 1.98 1.34 3.96 1 6 C0.34 6 -0.32 6 -1 6 C-1 6.66 -1 7.32 -1 8 C-0.34 8 0.32 8 1 8 C0.67 9.65 0.34 11.3 0 13 C-0.66 13 -1.32 13 -2 13 C-2 12.01 -2 11.02 -2 10 C-2.66 10.99 -3.32 11.98 -4 13 C-4 10.03 -4 7.06 -4 4 C-3.01 4 -2.02 4 -1 4 C-0.67 2.68 -0.34 1.36 0 0 Z " fill="#7A7A7A" transform="translate(345,145)"/>
<path d="M0 0 C0.515625 0.391875 1.03125 0.78375 1.5625 1.1875 C0.634375 1.5278125 0.634375 1.5278125 -0.3125 1.875 C-3.05160209 3.56679835 -3.48774472 5.17994161 -4.4375 8.1875 C-5.7575 7.8575 -7.0775 7.5275 -8.4375 7.1875 C-8.7675 5.5375 -9.0975 3.8875 -9.4375 2.1875 C-3.0375 -1.0125 -3.0375 -1.0125 0 0 Z " fill="#3C3200" transform="translate(204.4375,334.8125)"/>
<path d="M0 0 C0.66 0.33 1.32 0.66 2 1 C0.125 5.75 0.125 5.75 -1 8 C-0.01 8 0.98 8 2 8 C2 10.31 2 12.62 2 15 C1.01 15.495 1.01 15.495 0 16 C-1.80230168 12.17010894 -2.19622241 9.21878192 -2 5 C-2.66 4.67 -3.32 4.34 -4 4 C-4.33 5.32 -4.66 6.64 -5 8 C-5 5.69 -5 3.38 -5 1 C-4.67 1.66 -4.34 2.32 -4 3 C-3.01 2.67 -2.02 2.34 -1 2 C-0.67 1.34 -0.34 0.68 0 0 Z " fill="#595959" transform="translate(253,165)"/>
<path d="M0 0 C3.3 0 6.6 0 10 0 C8 2 8 2 5.375 2.125 C4.59125 2.08375 3.8075 2.0425 3 2 C3 2.66 3 3.32 3 4 C1.54536519 4.38909985 0.08608793 4.76088029 -1.375 5.125 C-2.18710938 5.33382813 -2.99921875 5.54265625 -3.8359375 5.7578125 C-4.55007812 5.83773438 -5.26421875 5.91765625 -6 6 C-6.66 5.34 -7.32 4.68 -8 4 C-7.360625 3.87625 -6.72125 3.7525 -6.0625 3.625 C-5.0415625 3.315625 -5.0415625 3.315625 -4 3 C-3.67 2.34 -3.34 1.68 -3 1 C-2.01 1.33 -1.02 1.66 0 2 C0 1.34 0 0.68 0 0 Z " fill="#897100" transform="translate(242,329)"/>
<path d="M0 0 C-2.79916389 1.86610926 -4.81938269 2.68785383 -8 3.625 C-8.86625 3.88539063 -9.7325 4.14578125 -10.625 4.4140625 C-13 5 -13 5 -16 5 C-16 4.34 -16 3.68 -16 3 C-13.04742973 1.03161982 -11.39514085 0.60938426 -8 0 C-5.13822943 -1.43088528 -3.06624227 -0.59991697 0 0 Z " fill="#CBA700" transform="translate(160,350)"/>
<path d="M0 0 C-0.33 0.99 -0.66 1.98 -1 3 C-2.98 3 -4.96 3 -7 3 C-7 3.66 -7 4.32 -7 5 C-9.64 4.67 -12.28 4.34 -15 4 C-14.67 3.01 -14.34 2.02 -14 1 C-9.32798795 -0.20568053 -4.78503708 -0.09382426 0 0 Z " fill="#574800" transform="translate(332,331)"/>
<path d="M0 0 C-0.33 1.32 -0.66 2.64 -1 4 C-2.258125 4.020625 -3.51625 4.04125 -4.8125 4.0625 C-5.52019531 4.07410156 -6.22789062 4.08570313 -6.95703125 4.09765625 C-9 4 -9 4 -12 3 C-12 3.66 -12 4.32 -12 5 C-12.99 4.67 -13.98 4.34 -15 4 C-10.7923604 -0.2076396 -5.6868542 -0.22747417 0 0 Z " fill="#DAB400" transform="translate(240,329)"/>
<path d="M0 0 C6.625 0.75 6.625 0.75 10 3 C5.545 4.485 5.545 4.485 1 6 C0 5 0 5 -0.0625 2.4375 C-0.041875 1.633125 -0.02125 0.82875 0 0 Z " fill="#292200" transform="translate(395,276)"/>
<path d="M0 0 C0.66 0.33 1.32 0.66 2 1 C2 2.32 2 3.64 2 5 C-0.64 5.99 -3.28 6.98 -6 8 C-6 6.68 -6 5.36 -6 4 C-5.01 3.67 -4.02 3.34 -3 3 C-3 2.34 -3 1.68 -3 1 C-2.01 0.67 -1.02 0.34 0 0 Z " fill="#E1B900" transform="translate(369,292)"/>
<path d="M0 0 C0 0.66 0 1.32 0 2 C-9.41002278 4.29612756 -9.41002278 4.29612756 -14 4 C-13.67 3.01 -13.34 2.02 -13 1 C-12.278125 1.04125 -11.55625 1.0825 -10.8125 1.125 C-7.9634211 1.15508904 -7.9634211 1.15508904 -5.375 -0.0625 C-3 -1 -3 -1 0 0 Z " fill="#B69600" transform="translate(284,340)"/>
<path d="M0 0 C1.11375 0.598125 2.2275 1.19625 3.375 1.8125 C4.00148438 2.14894531 4.62796875 2.48539062 5.2734375 2.83203125 C7 4 7 4 9 7 C8.96856707 9.73990408 8.44521663 12.28417854 8 15 C7.67 15 7.34 15 7 15 C7 13.02 7 11.04 7 9 C6.01 8.67 5.02 8.34 4 8 C2.19032651 5.35509259 1.01527629 3.04582887 0 0 Z " fill="#D2AD00" transform="translate(260,285)"/>
<path d="M0 0 C2.125 0.9375 2.125 0.9375 4 2 C3.835 2.598125 3.67 3.19625 3.5 3.8125 C2.8885876 6.11344336 2.8885876 6.11344336 3 9 C1.02 9.99 1.02 9.99 -1 11 C-0.67 9.02 -0.34 7.04 0 5 C-0.66 5 -1.32 5 -2 5 C-2 3.68 -2 2.36 -2 1 C-1.34 0.67 -0.68 0.34 0 0 Z " fill="#C1C1C1" transform="translate(144,210)"/>
<path d="M0 0 C2.97 0.495 2.97 0.495 6 1 C5.67 2.98 5.34 4.96 5 7 C3.68 7 2.36 7 1 7 C1 6.34 1 5.68 1 5 C0.34 5 -0.32 5 -1 5 C-0.67 3.35 -0.34 1.7 0 0 Z " fill="#C7C7C7" transform="translate(273,173)"/>
<path d="M0 0 C-4.37539576 4.37539576 -10.03265638 5.39108739 -16 6 C-16 5.34 -16 4.68 -16 4 C-5.62642369 -0.59225513 -5.62642369 -0.59225513 0 0 Z " fill="#F6CA00" transform="translate(159,347)"/>
<path d="M0 0 C0.33 0.99 0.66 1.98 1 3 C1.99 3 2.98 3 4 3 C4 3.66 4 4.32 4 5 C2.68 5 1.36 5 0 5 C0 5.99 0 6.98 0 8 C-1.32 7.67 -2.64 7.34 -4 7 C-4 4 -4 4 -2 1.8125 C-1.34 1.214375 -0.68 0.61625 0 0 Z " fill="#B09100" transform="translate(291,333)"/>
<path d="M0 0 C1.49080078 0.02707031 1.49080078 0.02707031 3.01171875 0.0546875 C3.77097656 0.07789063 4.53023438 0.10109375 5.3125 0.125 C5.3125 0.785 5.3125 1.445 5.3125 2.125 C3.25077387 2.46308686 1.1880797 2.79527361 -0.875 3.125 C-2.59783203 3.4034375 -2.59783203 3.4034375 -4.35546875 3.6875 C-7.19165393 4.05989477 -9.83469564 4.21096021 -12.6875 4.125 C-11.7903125 3.691875 -11.7903125 3.691875 -10.875 3.25 C-4.35625 -0.1025 -4.35625 -0.1025 0 0 Z " fill="#655300" transform="translate(267.6875,320.875)"/>
<path d="M0 0 C1.32 0.66 2.64 1.32 4 2 C3.01 2.99 2.02 3.98 1 5 C1.66 5.66 2.32 6.32 3 7 C1.68 8.32 0.36 9.64 -1 11 C-1.66 10.67 -2.32 10.34 -3 10 C-3 6.46857681 -1.56613697 3.13227393 0 0 Z " fill="#C0C0C0" transform="translate(320,167)"/>
<path d="M0 0 C2.31 0.33 4.62 0.66 7 1 C7 1.99 7 2.98 7 4 C3.78548731 5.60725635 0.56387464 5.05748185 -3 5 C-3.66 3.68 -4.32 2.36 -5 1 C-3.35 1 -1.7 1 0 1 C0 0.67 0 0.34 0 0 Z " fill="#AD8E00" transform="translate(314,332)"/>
<path d="M0 0 C1.32 0.66 2.64 1.32 4 2 C3.01 2.495 3.01 2.495 2 3 C2.99 4.485 2.99 4.485 4 6 C2.56138706 5.91253716 1.12402492 5.80434652 -0.3125 5.6875 C-1.11300781 5.62949219 -1.91351563 5.57148438 -2.73828125 5.51171875 C-5.36272334 4.91793306 -6.30820672 4.04219706 -8 2 C-6.8553125 2.061875 -6.8553125 2.061875 -5.6875 2.125 C-2.77281584 2.22080824 -2.77281584 2.22080824 0 0 Z " fill="#B69600" transform="translate(348,324)"/>
<path d="M0 0 C-1 2 -1 2 -2.734375 2.62109375 C-5.28144284 3.04706889 -7.66856169 3.09646629 -10.25 3.0625 C-11.14203125 3.05347656 -12.0340625 3.04445313 -12.953125 3.03515625 C-13.62859375 3.02355469 -14.3040625 3.01195312 -15 3 C-12.50497077 0.50497077 -10.94071581 0.41462527 -7.5 -0.1875 C-6.5203125 -0.36667969 -5.540625 -0.54585938 -4.53125 -0.73046875 C-2 -1 -2 -1 0 0 Z " fill="#725E00" transform="translate(225,353)"/>
<path d="M0 0 C0.66 0.33 1.32 0.66 2 1 C3.9959722 1.67863055 5.99568551 2.34641919 8 3 C7.67 3.99 7.34 4.98 7 6 C4.36 6 1.72 6 -1 6 C-1 4.68 -1 3.36 -1 2 C-1.66 1.67 -2.32 1.34 -3 1 C-2.01 0.67 -1.02 0.34 0 0 Z " fill="#C3A000" transform="translate(174,340)"/>
<path d="M0 0 C0 0.33 0 0.66 0 1 C-5.57067277 2.59162079 -10.21101581 3.20674944 -16 3 C-14 0 -14 0 -10.8125 -0.75 C-7.01373759 -0.99909917 -3.73457691 -0.6859427 0 0 Z " fill="#BE9D00" transform="translate(274,324)"/>
<path d="M0 0 C0 0.66 0 1.32 0 2 C-2.06172613 2.33808686 -4.1244203 2.67027361 -6.1875 3 C-7.91033203 3.2784375 -7.91033203 3.2784375 -9.66796875 3.5625 C-12.50415393 3.93489477 -15.14719564 4.08596021 -18 4 C-14.89724263 1.93149509 -12.5900783 1.21441918 -9 0.3125 C-7.948125 0.04050781 -6.89625 -0.23148437 -5.8125 -0.51171875 C-3 -1 -3 -1 0 0 Z " fill="#3B3100" transform="translate(327,322)"/>
<path d="M0 0 C-0.99 0.495 -0.99 0.495 -2 1 C-1.67 1.99 -1.34 2.98 -1 4 C-2.32 4.33 -3.64 4.66 -5 5 C-4.67 4.01 -4.34 3.02 -4 2 C-5.32 2 -6.64 2 -8 2 C-8.33 2.66 -8.66 3.32 -9 4 C-10.98 4 -12.96 4 -15 4 C-11.2354727 0.2354727 -5.16743168 -0.32296448 0 0 Z " fill="#D4AF00" transform="translate(198,339)"/>
<path d="M0 0 C0 1.32 0 2.64 0 4 C-4.455 4.495 -4.455 4.495 -9 5 C-9.33 4.34 -9.66 3.68 -10 3 C-4 0 -4 0 0 0 Z " fill="#957B00" transform="translate(307,334)"/>
<path d="M0 0 C-0.33 0.99 -0.66 1.98 -1 3 C-2.84765625 3.73046875 -2.84765625 3.73046875 -5.0625 4.1875 C-5.79597656 4.34605469 -6.52945313 4.50460937 -7.28515625 4.66796875 C-8.13400391 4.83232422 -8.13400391 4.83232422 -9 5 C-8.6875 3.0625 -8.6875 3.0625 -8 1 C-5.07175348 0.02391783 -3.04386724 -0.08226668 0 0 Z " fill="#F4C900" transform="translate(228,327)"/>
<path d="M0 0 C0 0.99 0 1.98 0 3 C-1.55966218 3.508783 -3.12289241 4.00663469 -4.6875 4.5 C-5.99267578 4.91765625 -5.99267578 4.91765625 -7.32421875 5.34375 C-9.99391677 5.99850805 -12.26396684 6.11831495 -15 6 C-12.47566318 2.85745824 -10.28937732 2.44304948 -6.375 1.875 C-2.87811449 1.61266888 -2.87811449 1.61266888 0 0 Z " fill="#524300" transform="translate(193,337)"/>
<path d="M0 0 C-1 2 -1 2 -3.875 3.0625 C-4.90625 3.371875 -5.9375 3.68125 -7 4 C-7.99 4.33 -8.98 4.66 -10 5 C-10.66 4.34 -11.32 3.68 -12 3 C-9.84267191 0.84267191 -8.88177557 0.51705175 -6 -0.1875 C-5.29875 -0.36667969 -4.5975 -0.54585938 -3.875 -0.73046875 C-2 -1 -2 -1 0 0 Z " fill="#E2BA00" transform="translate(187,338)"/>
<path d="M0 0 C1.98 0 3.96 0 6 0 C6 0.33 6 0.66 6 1 C8.97 1.495 8.97 1.495 12 2 C8.17482487 4.39073445 4.40334476 4.55966552 0 5 C0.99 4.01 1.98 3.02 3 2 C2.01 1.34 1.02 0.68 0 0 Z " fill="#AF9000" transform="translate(297,313)"/>
<path d="M0 0 C3.875 0.875 3.875 0.875 5 2 C5.07205511 3.68608966 5.08386068 5.37500659 5.0625 7.0625 C5.05347656 7.98160156 5.04445313 8.90070313 5.03515625 9.84765625 C5.02355469 10.55792969 5.01195312 11.26820313 5 12 C4.67 12 4.34 12 4 12 C3.67 9.69 3.34 7.38 3 5 C2.01 5 1.02 5 0 5 C0 3.35 0 1.7 0 0 Z " fill="#BDBDBD" transform="translate(296,176)"/>
<path d="M0 0 C0.33 0.66 0.66 1.32 1 2 C-2.67410785 3.17571451 -6.16929183 3.07366746 -10 3 C-10 2.01 -10 1.02 -10 0 C-6.64338305 -1.67830848 -3.63864406 -0.6353188 0 0 Z " fill="#AE8F00" transform="translate(195,360)"/>
<path d="M0 0 C-0.33 0.99 -0.66 1.98 -1 3 C-4.375 3.625 -4.375 3.625 -8 4 C-8.66 3.34 -9.32 2.68 -10 2 C-6.3558226 -0.4294516 -4.28758728 -0.16179575 0 0 Z " fill="#BF9D00" transform="translate(251,346)"/>
<path d="M0 0 C6.57142857 4 6.57142857 4 8 8 C7.01 8.33 6.02 8.66 5 9 C5 8.34 5 7.68 5 7 C4.34 7 3.68 7 3 7 C0 2.61538462 0 2.61538462 0 0 Z " fill="#E0B900" transform="translate(250,271)"/>
<path d="M0 0 C0.33 0.66 0.66 1.32 1 2 C1.66 2 2.32 2 3 2 C2.343621 6.48525648 1.29925791 10.66914029 0 15 C-0.33 15 -0.66 15 -1 15 C-0.67 10.05 -0.34 5.1 0 0 Z " fill="#F9F9F9" transform="translate(293,174)"/>
<path d="M0 0 C-0.33 0.99 -0.66 1.98 -1 3 C-3.64 3.33 -6.28 3.66 -9 4 C-9.33 3.01 -9.66 2.02 -10 1 C-6.52674819 -0.1577506 -3.63932552 -0.06866652 0 0 Z " fill="#534400" transform="translate(262,344)"/>
<path d="M0 0 C-0.33 0.99 -0.66 1.98 -1 3 C-3.97 3 -6.94 3 -10 3 C-10.33 2.01 -10.66 1.02 -11 0 C-3.375 -1.125 -3.375 -1.125 0 0 Z " fill="#C4A100" transform="translate(335,332)"/>
<path d="M0 0 C4.95 0 9.9 0 15 0 C15 0.33 15 0.66 15 1 C10.05 1.66 5.1 2.32 0 3 C0 2.01 0 1.02 0 0 Z " fill="#4E4000" transform="translate(240,325)"/>
<path d="M0 0 C0 3 0 3 -1.25 4.6875 C-3 6 -3 6 -7 6 C-6.875 4.125 -6.875 4.125 -6 2 C-2.9375 0.75 -2.9375 0.75 0 0 Z " fill="#DEB700" transform="translate(142,351)"/>
<path d="M0 0 C0 0.66 0 1.32 0 2 C0.66 2.33 1.32 2.66 2 3 C1.67 3.99 1.34 4.98 1 6 C0.34 5.67 -0.32 5.34 -1 5 C-2.0209375 4.7834375 -2.0209375 4.7834375 -3.0625 4.5625 C-3.701875 4.376875 -4.34125 4.19125 -5 4 C-5.33 3.34 -5.66 2.68 -6 2 C-2.25 0 -2.25 0 0 0 Z " fill="#5E4D00" transform="translate(144,353)"/>
<path d="M0 0 C0.33 0.66 0.66 1.32 1 2 C1.66 2 2.32 2 3 2 C3 2.66 3 3.32 3 4 C1.35 4.66 -0.3 5.32 -2 6 C-2.66 4.35 -3.32 2.7 -4 1 C-2.68 0.67 -1.36 0.34 0 0 Z " fill="#A68800" transform="translate(333,313)"/>
<path d="M0 0 C0 0.66 0 1.32 0 2 C-3.63 2.66 -7.26 3.32 -11 4 C-7.65667474 -0.27945633 -5.29105716 -0.4070044 0 0 Z " fill="#CCA800" transform="translate(221,351)"/>
<path d="M0 0 C-0.33 0.99 -0.66 1.98 -1 3 C-2.98 3.33 -4.96 3.66 -7 4 C-7.33 3.01 -7.66 2.02 -8 1 C-5.10765685 0.17361624 -3.11257569 0 0 0 Z " fill="#5F4E00" transform="translate(194,341)"/>
<path d="M0 0 C1.67542976 0.28604898 3.34385343 0.61781233 5 1 C4.67 1.99 4.34 2.98 4 4 C1.03 3.67 -1.94 3.34 -5 3 C-3.68 2.34 -2.36 1.68 -1 1 C-0.67 0.67 -0.34 0.34 0 0 Z " fill="#A98B00" transform="translate(209,336)"/>
<path d="M0 0 C-3.20010388 1.8133922 -6.13283843 2.52213974 -9.75 3.125 C-10.73484375 3.29257812 -11.7196875 3.46015625 -12.734375 3.6328125 C-13.48203125 3.75398438 -14.2296875 3.87515625 -15 4 C-14.34 3.01 -13.68 2.02 -13 1 C-8.62250319 0.21061533 -4.45083248 -0.13908851 0 0 Z " fill="#997E00" transform="translate(221,332)"/>
<path d="M0 0 C0.66 0 1.32 0 2 0 C2 0.66 2 1.32 2 2 C3.65 1.67 5.3 1.34 7 1 C7.66 1.99 8.32 2.98 9 4 C6.69 4.33 4.38 4.66 2 5 C2 4.34 2 3.68 2 3 C1.01 2.67 0.02 2.34 -1 2 C-0.67 1.34 -0.34 0.68 0 0 Z " fill="#BD9B00" transform="translate(238,326)"/>
<path d="M0 0 C2.21736634 1.10868317 4.03617993 2.49440461 6 4 C-0.75 5.125 -0.75 5.125 -3 4 C-3 3.34 -3 2.68 -3 2 C-2.01 1.34 -1.02 0.68 0 0 Z " fill="#CFAA00" transform="translate(323,317)"/>
<path d="M0 0 C0.33 0.99 0.66 1.98 1 3 C0.01 3.495 0.01 3.495 -1 4 C-0.67 6.31 -0.34 8.62 0 11 C-0.99 10.67 -1.98 10.34 -3 10 C-3.79953138 6.71303767 -4.09658936 5.28976808 -3 2 C-2.01 2 -1.02 2 0 2 C0 1.34 0 0.68 0 0 Z " fill="#979797" transform="translate(217,181)"/>
<path d="M0 0 C-0.33 1.32 -0.66 2.64 -1 4 C-2.32 4 -3.64 4 -5 4 C-5 3.01 -5 2.02 -5 1 C-5.66 0.67 -6.32 0.34 -7 0 C-2.25 -1.125 -2.25 -1.125 0 0 Z " fill="#D3D3D3" transform="translate(238,208)"/>
<path d="M0 0 C-0.99 1.485 -0.99 1.485 -2 3 C-2.66 3 -3.32 3 -4 3 C-4 3.66 -4 4.32 -4 5 C-4.99 4.67 -5.98 4.34 -7 4 C-6.34 4 -5.68 4 -5 4 C-5.99 2.68 -6.98 1.36 -8 0 C-4.71023192 -1.09658936 -3.28696233 -0.79953138 0 0 Z " fill="#DDB600" transform="translate(313,322)"/>
<path d="M0 0 C0.99 0.66 1.98 1.32 3 2 C2.67 2.66 2.34 3.32 2 4 C-0.9375 4.75 -0.9375 4.75 -4 5 C-4.66 4.34 -5.32 3.68 -6 3 C-4.02 2.67 -2.04 2.34 0 2 C0 1.34 0 0.68 0 0 Z " fill="#826B00" transform="translate(206,355)"/>
<path d="M0 0 C0.66 0 1.32 0 2 0 C2.33 0.99 2.66 1.98 3 3 C0.69 3.66 -1.62 4.32 -4 5 C-4 4.01 -4 3.02 -4 2 C-2.68 2 -1.36 2 0 2 C0 1.34 0 0.68 0 0 Z " fill="#352C00" transform="translate(295,336)"/>
<path d="M0 0 C3 1 3 1 5 3 C0.545 3.495 0.545 3.495 -4 4 C-4 3.34 -4 2.68 -4 2 C-2.68 2 -1.36 2 0 2 C0 1.34 0 0.68 0 0 Z " fill="#836C00" transform="translate(228,332)"/>
<path d="M0 0 C0.99 0 1.98 0 3 0 C3.33 2.31 3.66 4.62 4 7 C3.34 7 2.68 7 2 7 C1.01 5.02 0.02 3.04 -1 1 C-0.67 0.67 -0.34 0.34 0 0 Z " fill="#272000" transform="translate(388,290)"/>
<path d="M0 0 C1.32 0.66 2.64 1.32 4 2 C1.08235 3.9451 -0.62537285 4.45276317 -4 5 C-2.68 3.35 -1.36 1.7 0 0 Z " fill="#1A1500" transform="translate(372,286)"/>
<path d="M0 0 C0.66 0 1.32 0 2 0 C2.33 0.33 2.66 0.66 3 1 C3.99 1 4.98 1 6 1 C6.66 1.33 7.32 1.66 8 2 C7.01 2.99 6.02 3.98 5 5 C4.67 4.34 4.34 3.68 4 3 C1.97536745 2.34786708 1.97536745 2.34786708 0 2 C0 1.34 0 0.68 0 0 Z " fill="#5A4A00" transform="translate(240,284)"/>
<path d="M0 0 C-3.75 2 -3.75 2 -6 2 C-6 1.34 -6 0.68 -6 0 C-6.66 -0.33 -7.32 -0.66 -8 -1 C-4.59745511 -2.2151946 -3.06748874 -1.86240388 0 0 Z " fill="#745F00" transform="translate(206,336)"/>
<path d="M0 0 C0 0.66 0 1.32 0 2 C-3.76624671 3.25541557 -5.37188934 2.37061958 -9 1 C-9 0.67 -9 0.34 -9 0 C-3.375 -1.125 -3.375 -1.125 0 0 Z " fill="#C09E00" transform="translate(248,323)"/>
<path d="M0 0 C0.33 0 0.66 0 1 0 C1 2.31 1 4.62 1 7 C-1.475 6.01 -1.475 6.01 -4 5 C-3.34 4.67 -2.68 4.34 -2 4 C-0.86649466 1.98330173 -0.86649466 1.98330173 0 0 Z " fill="#FDFDFD" transform="translate(300,171)"/>
<path d="M0 0 C0.66 0 1.32 0 2 0 C2 1.98 2 3.96 2 6 C0.33333333 6 -1.33333333 6 -3 6 C-2.67 5.01 -2.34 4.02 -2 3 C-1.34 3 -0.68 3 0 3 C0 2.01 0 1.02 0 0 Z " fill="#A8A8A8" transform="translate(300,167)"/>
</svg>
